<svg width="256" height="256" viewBox="0 0 256 256" xmlns="http://www.w3.org/2000/svg" shape-rendering="crispEdges">
  <rect width="256" height="256" fill="#000"/>
  <rect x="48" y="48" width="160" height="160" fill="#fff"/>
  <rect x="64" y="64" width="128" height="128" fill="#000"/>
  <rect x="80" y="80" width="32" height="32" fill="#fff"/>
  <rect x="144" y="80" width="32" height="32" fill="#fff"/>
  <rect x="112" y="112" width="32" height="32" fill="#fff"/>
  <rect x="80" y="144" width="32" height="32" fill="#fff"/>
  <rect x="144" y="144" width="32" height="32" fill="#fff"/>
  <rect x="112" y="48" width="32" height="16" fill="#fff"/>
  <rect x="112" y="192" width="32" height="16" fill="#fff"/>
  <rect x="48" y="112" width="16" height="32" fill="#fff"/>
  <rect x="192" y="112" width="16" height="32" fill="#fff"/>
  <rect x="96" y="96" width="64" height="16" fill="#000"/>
  <rect x="96" y="144" width="64" height="16" fill="#000"/>
  <rect x="120" y="96" width="16" height="64" fill="#000"/>
</svg>
